<?xml version="1.0" encoding="utf-8"?>
<!-- Generator: Adobe Illustrator 19.2.1, SVG Export Plug-In . SVG Version: 6.00 Build 0)  -->
<svg version="1.1" id="Layer_1" xmlns="http://www.w3.org/2000/svg" xmlns:xlink="http://www.w3.org/1999/xlink" x="0px" y="0px"
	 viewBox="0 0 42.9 70.9" style="enable-background:new 0 0 42.9 70.9;" xml:space="preserve">
<style type="text/css">
	.st0{fill:#F8E185;}
	.st1{fill:none;stroke:#231F20;stroke-miterlimit:10;}
</style>
<g>
	<g>
		<path class="st0" d="M20.9,1.1c-5.8,8.2-10.3,17-13.8,26.4c-0.9,2.4,2.5,4.2,4.2,2.4C18.9,21.6,26.4,13.3,34,5c-1.3-1-2.6-2-3.9-3
			C20.2,15.7,10.3,29.4,0.4,43.1c-1.7,2.4,1.9,5,3.9,3c12-11.7,24.1-23.4,37.5-33.5c-1-1.3-2-2.6-3-3.9
			c-9.1,10.7-18.2,21.5-27.4,32.2c1.2,1.2,2.4,2.4,3.5,3.5c5.6-6.7,12-12.6,19.2-17.6c-1.1-1.1-2.3-2.3-3.4-3.4
			C22.4,34.8,13.9,46.2,5.5,57.6c-1.7,2.3,2.2,5.3,3.9,3C16.2,52,24,44.3,32.9,37.9c-1.1-1.1-2.3-2.3-3.4-3.4
			c-5.4,7.2-11.1,14.2-17.1,20.9c1.3,1,2.6,2,3.9,3c5-7.2,11-13.3,18.2-18.2c-1.1-1.1-2.3-2.3-3.4-3.4c-4.8,7.4-9.4,15-13.8,22.8
			c-1.1,2,1.3,5,3.4,3.4c5.5-4.2,10.9-8.4,16.4-12.6c-1.1-1.1-2.3-2.3-3.4-3.4c-4.5,6.5-9,12.9-13.6,19.4c1.4,0.8,2.9,1.7,4.3,2.5
			c2-3.9,4.5-6.7,8.1-9c-1.3-0.7-2.5-1.4-3.8-2.2c0.1,3.6-0.8,6.4-2.6,9.4c-1.3,2,1.4,5,3.4,3.4c1.5-1.1,3-2.3,4.5-3.4
			c2.5-1.9,0-6.3-2.5-4.3c-1.5,1.1-3,2.3-4.5,3.4c1.1,1.1,2.3,2.3,3.4,3.4c2.3-3.7,3.4-7.6,3.3-11.9c0-1.8-2.1-3.2-3.8-2.2
			c-4.3,2.7-7.6,6.2-9.9,10.8c-1.5,2.9,2.5,5.1,4.3,2.5c4.5-6.5,9-12.9,13.6-19.4c1.4-2-1.4-4.9-3.4-3.4
			c-5.5,4.2-10.9,8.4-16.4,12.6c1.1,1.1,2.3,2.3,3.4,3.4c4.3-7.8,8.9-15.3,13.8-22.8c1.3-2-1.4-4.8-3.4-3.4
			c-7.9,5.4-14.6,12.1-20,20c-1.6,2.3,2,5.1,3.9,3c6.3-7,12.2-14.3,17.8-21.9c1.5-2-1.4-4.8-3.4-3.4c-9.3,6.7-17.5,14.5-24.5,23.4
			c1.3,1,2.6,2,3.9,3c8.4-11.4,16.9-22.8,25.3-34.2c1.5-2-1.4-4.8-3.4-3.4c-7.6,5.2-14.4,11.3-20.3,18.4c-2,2.4,1.4,6,3.5,3.5
			C24.1,33.7,33.2,23,42.3,12.2c1.7-2-0.6-5.8-3-3.9C25.6,18.7,13.2,30.6,0.8,42.6c1.3,1,2.6,2,3.9,3c9.9-13.7,19.8-27.4,29.6-41.1
			c1.7-2.3-2-5.1-3.9-3C22.9,9.8,15.3,18.1,7.8,26.4c1.4,0.8,2.8,1.6,4.2,2.4c3.3-9,7.8-17.4,13.3-25.2C27.1,1,22.8-1.5,20.9,1.1
			L20.9,1.1z"/>
	</g>
</g>
<title>petals</title>
<path class="st1" d="M19.7,24.7c-0.4,7.1-0.2,14.3,0.7,21.3"/>
<path class="st1" d="M13.2,27.4c-0.6,2.9-0.6,6.5,1.9,7.9c1.6,0.9,3.6,0.5,4.8-0.9"/>
<path class="st1" d="M32.3,26.5c-2.4,0.7-4.3,2.5-5.1,4.9c-0.8,2.3-1.2,4.8-1.2,7.2c-0.3,2,0,4.1,0.6,6c0.8,1.9,2.8,3.4,4.7,3
	c2.7-0.5,3.6-3.9,3.8-6.7c0.2-5.1-0.5-10.7-4.3-14.1"/>
</svg>
