<?xml version="1.0" encoding="utf-8"?>
<!-- Generator: Adobe Illustrator 19.2.1, SVG Export Plug-In . SVG Version: 6.00 Build 0)  -->
<svg version="1.1" id="Layer_1" xmlns="http://www.w3.org/2000/svg" xmlns:xlink="http://www.w3.org/1999/xlink" x="0px" y="0px"
	 viewBox="0 0 167.7 76.7" style="enable-background:new 0 0 167.7 76.7;" xml:space="preserve">
<style type="text/css">
	.st0{fill:#2C3E50;}
	.st1{fill:#ECF0F1;}
	.st2{fill:#95A5A5;}
</style>
<g>
	<g>
		<path class="st0" d="M0.6,7.2C0.4,28,0.2,48.7,0,69.5c-0.1,8.7,12.2,9.9,14.7,2c5.8-18.1,11.6-36.1,17.4-54.2
			c-4.8-1.3-9.6-2.7-14.5-4c-4.3,15.9-5,32.2-2.6,48.5c1.1,7.1,13.5,7.2,14.5,0c2.1-15.3,6-30.1,11.7-44.5c-4.9-0.7-9.8-1.3-14.7-2
			c-0.6,17,0.9,34,4.1,50.7c1.7,8.6,14.4,6.1,14.7-2c0.6-15.1,3.9-30.2,10-44.1c-4.7-1.3-9.3-2.5-14-3.8c0.3,15.6,1.5,31.1,3.4,46.6
			c1.2,9.3,14.7,9.9,15,0c0.5-15,4-29.8,10.4-43.4c-4.7-1.3-9.3-2.5-14-3.8c0.8,13.5,1.6,27,2.5,40.5c0.5,8,12.9,10.7,14.7,2
			c2.8-13.3,7-26.2,12.7-38.5c-4.7-1.3-9.3-2.5-14-3.8c1.3,12.5,2.6,24.9,3.8,37.4c0.4,3.7,2.6,6.9,6.5,7.4c3.4,0.4,7.6-1.6,8.2-5.4
			c2.5-14.6,7.6-28.2,15.4-40.8c-4.7-1.3-9.3-2.5-14-3.8c0.3,15.7-1.1,31.3-4.6,46.7c-1.7,7.9,9.9,13.8,13.7,5.8
			c6.7-14.1,13.4-28.2,20.1-42.2c-4.7-1.3-9.3-2.5-14-3.8c-0.2,14.4-0.4,28.8-0.6,43.2c-0.1,8.3,12.8,10.3,14.7,2
			c3.5-15.2,8.3-30.1,14.2-44.6c-4.9-0.7-9.8-1.3-14.7-2c0.1,13.2,0.2,26.4,0.3,39.5c0.1,8.3,12.7,10.4,14.7,2
			c3.3-13.4,7.5-26.6,12.9-39.3c-4.7-1.3-9.3-2.5-14-3.8c0.8,13.7,0.9,27.4,0,41.1c-0.4,7.2,10.9,10.6,14,3.8
			c5.9-12.9,11.8-25.7,17.6-38.6c-4.7-1.3-9.3-2.5-14-3.8c-0.8,11.9-0.9,23.8-0.2,35.7c0.5,9.6,15.5,9.7,15,0
			c-0.7-11.9-0.6-23.8,0.2-35.7c0.5-7.2-10.9-10.5-14-3.8c-5.9,12.9-11.8,25.7-17.6,38.6c4.7,1.3,9.3,2.5,14,3.8
			c0.8-13.7,0.8-27.4,0-41.1c-0.4-6.6-10.8-11.2-14-3.8c-6,13.9-10.9,28.2-14.5,42.9c4.9,0.7,9.8,1.3,14.7,2
			c-0.1-13.2-0.2-26.4-0.3-39.5c-0.1-9-11.7-9.4-14.7-2c-6,14.5-10.7,29.3-14.2,44.6c4.9,0.7,9.8,1.3,14.7,2
			c0.2-14.4,0.4-28.8,0.6-43.2c0.1-7.1-10.7-10.7-14-3.8C101.7,27.3,95,41.4,88.3,55.5c4.6,1.9,9.1,3.9,13.7,5.8
			c3.7-16.6,5.4-33.6,5.1-50.6c-0.2-7.5-10.1-10.1-14-3.8C84.7,20.4,79,35.4,76.3,51.2c4.9,0.7,9.8,1.3,14.7,2
			c-1.3-12.5-2.6-24.9-3.8-37.4c-0.7-6.5-10.5-11.3-14-3.8C66.9,25.5,62.1,39.5,59,54.1c4.9,0.7,9.8,1.3,14.7,2
			c-0.8-13.5-1.6-27-2.5-40.5c-0.4-6.8-10.6-11-14-3.8c-7.6,16.1-11.9,33.2-12.5,51c5,0,10,0,15,0c-2-15.5-3.1-31-3.4-46.6
			c-0.1-6.8-10.8-11-14-3.8c-7.2,16.5-11.3,33.7-12,51.6c4.9-0.7,9.8-1.3,14.7-2c-3-15.4-4.1-31.1-3.6-46.8c0.3-9-11.8-9.4-14.7-2
			c-5.7,14.3-9.6,29.2-11.7,44.5c4.8,0,9.6,0,14.5,0c-2-13.5-1-27.3,2.6-40.5c2.5-9.4-11.5-13.1-14.5-4C11.9,31.3,6.1,49.4,0.3,67.5
			c4.9,0.7,9.8,1.3,14.7,2c0.2-20.7,0.4-41.5,0.6-62.2C15.7-2.4,0.7-2.4,0.6,7.2L0.6,7.2z"/>
	</g>
</g>
<g>
	<g>
		<path class="st1" d="M103.7,24.7c-5.4,7.6-10.1,15.7-14,24.1c-0.4,0.8,2.5,0.5,2.9-0.4c3.9-8.3,8.5-16.2,13.8-23.7
			C107.1,23.7,104.2,23.9,103.7,24.7L103.7,24.7z"/>
	</g>
</g>
<g>
	<g>
		<path class="st1" d="M89.2,27.8c1.9,3.8,4.2,7.5,6.9,10.9c1.2,1.6,2.6,3.1,4,4.6c1,1,4.3,3.3,4.4,4.6c0.4-0.4,0.8-0.8,1.2-1.2
			c0.2,0,0.5,0,0.7,0c0,0.4,0.1,0.9,0.1,1.3c0.1-0.1,0.1-0.2,0.2-0.2c1-1.6-1.7-2.1-2.5-0.9c-0.1,0.1-0.1,0.2-0.2,0.2
			c-0.3,0.5-0.3,0.9,0.1,1.3c0.1,0.1,0.2,0.2,0.3,0.3c0.3,0.3,1,0.3,1.4,0.2c0.1,0,0.3-0.1,0.4-0.1c0.4-0.1,1.2-0.6,1.2-1.2
			c-0.1-1.3-0.5-1.7-1.5-2.6c-2-2-4-3.9-5.9-6.1c-3.2-3.8-5.9-8-8.1-12.4C91.2,25.3,88.5,26.4,89.2,27.8L89.2,27.8z"/>
	</g>
</g>
<g>
	<g>
		<path class="st2" d="M23.7,26c-0.5,9.3-0.2,18.5,1,27.8c0.2,1.4,3.1,0.7,2.9-0.8c-1.1-9-1.4-18.1-1-27.2
			C26.7,24.3,23.7,24.7,23.7,26L23.7,26z"/>
	</g>
</g>
<g>
	<g>
		<path class="st2" d="M14,40.3c7.6-0.5,15.2-0.3,22.7,0.6c1.5,0.2,2.9-1.9,1-2.1c-7.8-0.9-15.6-1.2-23.5-0.6
			C12.5,38.2,12,40.4,14,40.3L14,40.3z"/>
	</g>
</g>
<g>
	<g>
		<path class="st2" d="M123.7,36.9c9.5,0.6,18.9-0.3,28.2-2.5c1.8-0.4,1.3-2.1-0.4-1.6c-8.8,2.1-17.6,2.9-26.6,2.4
			C123.6,35,121.8,36.8,123.7,36.9L123.7,36.9z"/>
	</g>
</g>
<g>
	<g>
		<path class="st2" d="M134.3,45.2c-0.3,1.6,1.2,2.8,2.7,2.8c0.9,0,1.2-0.2,1.8-0.4c0.8-0.2,1.5-0.7,1.9-1.4
			c2.4-3.3-1.5-6.2-4.6-4.7c-3.9,1.8-2.6,7,1.5,7.4c1.9,0.2,3.8-0.8,4.9-2.4c1.2-1.8,1.1-3.4-0.6-4.8c-3.8-2.9-9.7-0.3-9.8,4.6
			c0,1.6,2.9,1.2,2.9-0.2c0-2,1.5-4,3.7-3.2c0.8,0.3,1.7,1,1.6,1.9c-0.2,1-1.2,2.1-2.3,1.7c-0.8-0.3-1.6-1.3-1.5-2.2
			c0.2-0.9,1.3-1.5,1.8-0.5c0.2,0.4,0.1,1.3-0.3,1.6c0,0-1,0.2-0.9,0.2c0.3,0.1-0.1-0.4,0-0.7C137.5,43.5,134.5,43.8,134.3,45.2
			L134.3,45.2z"/>
	</g>
</g>
<g>
	<g>
		<path class="st2" d="M132.8,25.8c-0.3,1.6,1.2,2.8,2.7,2.8c0.9,0,1.2-0.2,1.8-0.4c0.8-0.2,1.5-0.7,1.9-1.4
			c2.4-3.3-1.5-6.2-4.6-4.7c-3.9,1.8-2.6,7,1.5,7.4c1.9,0.2,3.8-0.8,4.9-2.4c1.2-1.8,1.1-3.4-0.6-4.8c-3.8-2.9-9.7-0.3-9.8,4.6
			c0,1.6,2.9,1.2,2.9-0.2c0-2,1.5-4,3.7-3.2c0.8,0.3,1.7,1,1.6,1.9c-0.2,1-1.2,2.1-2.3,1.7c-0.8-0.3-1.6-1.3-1.5-2.2
			c0.2-0.9,1.3-1.5,1.8-0.5c0.2,0.4,0.1,1.3-0.3,1.6c0,0-1,0.2-0.9,0.2c0.3,0.1-0.1-0.4,0-0.7C136,24.1,133,24.4,132.8,25.8
			L132.8,25.8z"/>
	</g>
</g>
<g>
	<g>
		<path class="st2" d="M48.7,38.3c7.6-0.5,15.2-0.3,22.7,0.6c1.5,0.2,2.9-1.9,1-2.1c-7.8-0.9-15.6-1.2-23.5-0.6
			C47.3,36.3,46.8,38.5,48.7,38.3L48.7,38.3z"/>
	</g>
</g>
</svg>
